<?xml version="1.0" encoding="utf-8"?>
<!-- Generator: Adobe Illustrator 24.0.0, SVG Export Plug-In . SVG Version: 6.00 Build 0)  -->
<svg version="1.1" id="Layer_1" xmlns="http://www.w3.org/2000/svg" xmlns:xlink="http://www.w3.org/1999/xlink" x="0px" y="0px"
	 viewBox="0 0 1368 1368" style="enable-background:new 0 0 1368 1368;" xml:space="preserve">
<style type="text/css">
	.st0{fill:none;stroke:#000000;stroke-miterlimit:10;}
	.st1{fill:none;stroke:#000000;stroke-width:3;stroke-linecap:round;stroke-miterlimit:10;}
	.st2{fill:none;}
	.st3{fill:url(#XMLID_33_);}
	.st4{fill:#FA8072;}
	.st5{fill:#0F4C75;}
	.st6{fill:url(#XMLID_34_);}
	.st7{fill:#318072;}
	.st8{fill:url(#XMLID_35_);}
	.st9{fill:#FFFFFF;}
	.st10{fill:url(#XMLID_36_);}
	.st11{fill:url(#XMLID_37_);}
</style>
<g id="XMLID_12_">
	<linearGradient id="XMLID_33_" gradientUnits="userSpaceOnUse" x1="748.9757" y1="439.6128" x2="691.4033" y2="691.0125">
		<stop  offset="0" style="stop-color:#318072"/>
		<stop  offset="1" style="stop-color:#0F4C75"/>
	</linearGradient>
	<path id="XMLID_13_" class="st3" d="M1006.18,201.88c-1.24-3.1-3.71-5.57-6.19-7.43c-2.47-2.47-5.57-3.71-8.67-4.95
		c-3.09-1.24-6.19-1.86-9.28-1.86h-50.75c-4.95,0-8.67,0.62-11.14,1.86c-3.1,1.24-5.57,3.09-6.81,4.95
		c-1.85,2.48-3.71,4.95-4.95,8.05c-1.18,3.18-2.2,6.66-3.71,10.52c-6.77,17.31-23.52,14.23-31.57,6.19
		c-8.05-7.43-16.71-13.61-26-19.19c-9.9-5.57-20.42-9.9-32.18-13c-11.76-3.09-24.14-4.95-38.37-4.95c-30.95,0-58.8,5.57-85.41,17.33
		c-25.99,11.14-48.28,27.23-67.46,47.04c-19.19,20.43-34.04,43.94-44.56,71.18c-10.52,26.61-16.09,55.7-16.09,87.27
		c0,30.95,5.57,60.04,16.09,86.03c10.52,25.99,25.37,48.27,44.56,66.84c19.19,19.19,41.47,33.42,67.46,43.94
		c26.61,10.52,54.46,15.47,85.41,15.47c13.61,0,25.99-1.24,36.51-4.95c10.52-3.09,19.81-7.43,27.85-12.38
		c8.67-5.57,16.09-11.76,22.9-18.57c6.81-6.81,18.18-26.68,20.43-11.14v4.95c0,5.57-0.62,11.14-0.62,16.71
		c-0.62,5.57-1.85,10.52-3.09,14.85c-3.09,10.52-8.05,19.19-15.47,26.61c-7.43,8.05-15.47,14.23-25.38,19.81
		c-9.9,5.57-19.8,9.28-30.95,11.76c-1.11,0.31-2.49,0.67-4.08,1.05c-37.59,9.1-74.73-2.85-109.67-19.44
		c-18.63-8.85-26.55-10.96-54.24-19.91c-12.5-4.04-42.28-7.62-64.79-7.62c-29.95,0-52.73,0.29-77,7.57
		c-24.27,7.31-45,17.65-62.19,30.98c-17.23,13.36-30.46,29.46-39.74,48.26s-13.93,39.68-13.93,62.71c0,21.76,3.72,41.49,11.15,59.17
		c7.4,17.68,18.56,33.88,33.42,48.59c14.84,14.72,33.42,28.07,55.7,40.07c22.27,12,48.26,23.21,77.97,33.57
		c6.68,2.24,14.63,5.02,23.78,8.37c9.16,3.32,17.95,7.34,26.35,12.06c8.43,4.68,15.53,10.06,21.37,16.14
		c5.8,6.04,8.7,12.9,8.7,20.58c0,6.92-1.03,13.48-3.14,19.67s-5.62,11.6-10.58,16.32c-4.96,4.68-11.7,8.46-20.25,11.33
		c-8.52,2.84-19.13,4.26-31.73,4.26c-13.63,0-26.62-2.36-39.01-7.07c-12.36-4.68-24.87-11.24-37.5-19.67
		c-8.4-5.68-15.9-11.45-22.45-17.26c-6.56-5.83-11.97-10.46-16.17-13.93c-3.48-2.99-6.44-5.2-8.92-6.68
		c-2.48-1.51-4.81-2.24-7.04-2.24c-3.23,0-7.43,1.84-12.63,5.56l-64.25,61.29c-5.68,5.2-8.52,9.91-8.52,14.14
		c0,3.72,2.84,8.7,8.52,14.9c0.24,0.24,0.51,0.42,0.76,0.54c0.24,0.15,0.48,0.45,0.73,0.94c0.24,0.27,0.51,0.45,0.76,0.57
		c0.24,0.12,0.48,0.42,0.76,0.94l1.09,1.12c3.96,4.2,9.37,9.79,16.17,16.74c6.8,6.95,15.17,14.02,25.05,21.24
		c23.78,17.14,49.41,30.79,76.88,40.95c27.47,10.18,55.45,15.26,83.92,15.26c30.19,0,58.42-4.26,84.68-12.78
		c26.23-8.55,49.08-20.61,68.51-36.23c19.43-15.59,34.72-34.45,45.84-56.6c11.15-22.18,16.71-46.87,16.71-74.1
		c0-25.75-4.5-47.66-13.54-65.73s-21.61-33.61-37.68-46.6c-16.11-12.99-35.24-24.27-57.39-33.79
		c-22.15-9.55-46.36-18.65-72.59-27.29c-13.63-4.47-25.57-8.61-35.84-12.45c-10.27-3.84-18.89-7.92-25.81-12.27
		c-6.92-4.32-12.12-9.04-15.59-14.11c-3.48-5.05-5.2-11.06-5.2-17.98c0-6.95,4.92-19.01,8.15-23.84c3.2-4.84,7.52-8.73,12.99-11.7
		c5.44-2.99,11.89-6.86,19.05-8.21c7.19-1.36,14.87-2.05,23.03-2.05c7.92,0,15.71,1.18,23.39,3.54s14.92,5.45,21.91,8.91
		c56.54,28.04,115.68,40.42,149.39,40.41c22.44-0.01,61.27-4.95,88.5-14.85c27.23-10.52,51.37-24.75,71.18-43.94
		c20.42-19.19,35.89-42.09,47.65-69.93c11.76-27.85,17.33-59.42,17.33-94.7V213.02C1008.66,208.69,1008.04,205.59,1006.18,201.88z
		 M891.06,411.07c-0.62,14.24-3.71,27.23-9.28,39.61c-6.19,12.38-13.62,22.9-22.9,32.18c-9.9,8.67-21.04,16.09-34.04,21.04
		c-12.38,4.95-25.99,7.43-40.85,7.43c-14.85,0-27.85-2.48-40.23-8.05c-12.38-5.57-22.28-13-30.95-22.28
		c-8.67-9.9-15.47-21.04-20.43-34.04c-4.33-12.99-6.81-27.23-6.81-42.09s2.48-28.47,6.81-41.47c4.95-13.62,11.76-24.76,20.43-34.66
		c8.67-9.9,18.57-17.33,30.95-23.52c12.38-5.57,25.38-8.67,40.23-8.67c14.85,0,28.47,3.09,40.85,8.67
		c13,5.57,24.14,12.99,34.04,22.28c9.29,9.29,16.71,20.43,22.9,32.8c5.57,12.38,8.66,25.37,9.28,38.99V411.07z"/>
</g>
</svg>
