<?xml version="1.0" encoding="utf-8"?>
<!-- Generator: Adobe Illustrator 23.1.0, SVG Export Plug-In . SVG Version: 6.00 Build 0)  -->
<svg version="1.1" id="Elements" xmlns="http://www.w3.org/2000/svg" xmlns:xlink="http://www.w3.org/1999/xlink" x="0px" y="0px"
	 viewBox="0 0 117.3 86.6" style="enable-background:new 0 0 117.3 86.6;" xml:space="preserve">
<style type="text/css">
	.st0{fill:#104D75;}
	.st1{fill:#FFFFFF;}
</style>
<g id="XMLID_1_">
	<path id="XMLID_6_" class="st0" d="M103.3,0H13.9C6.2,0,0,6.2,0,13.9v41.5c0,7.7,6.2,13.9,13.9,13.9h20.6c1.7,0,3.3,0.6,4.5,1.7
		l17.2,14.7c1.4,1.2,3.5,1.2,4.9,0L78.3,71c1.3-1.1,2.9-1.7,4.5-1.7h20.6c7.7,0,13.9-6.2,13.9-13.9V13.9C117.2,6.3,111,0,103.3,0z"
		/>
	<path id="XMLID_5_" class="st1" d="M36.2,28.9v14.5c0,5.5,4.4,9.9,9.9,9.9H70c2.4,0,4.7,0.9,6.3,2.6l1.8,1.8c1,1,2.8,0.3,2.8-1.2
		V28.8c0-5.5-4.4-9.9-9.9-9.9H46.1C40.6,19,36.2,23.4,36.2,28.9z"/>
</g>
</svg>
