<?xml version="1.0" encoding="utf-8"?>
<!-- Generator: Adobe Illustrator 23.1.0, SVG Export Plug-In . SVG Version: 6.00 Build 0)  -->
<svg version="1.1" id="Elements" xmlns="http://www.w3.org/2000/svg" xmlns:xlink="http://www.w3.org/1999/xlink" x="0px" y="0px"
	 viewBox="0 0 117.3 86.6" style="enable-background:new 0 0 117.3 86.6;" xml:space="preserve">
<style type="text/css">
	.st0{fill:#D80000;}
	.st1{fill:#FFFFFF;}
</style>
<path id="XMLID_8_" class="st0" d="M103.3,0H13.9C6.2,0,0,6.2,0,13.9v41.5c0,7.7,6.2,13.9,13.9,13.9h20.6c1.7,0,3.3,0.6,4.5,1.7
	l17.2,14.7c1.4,1.2,3.5,1.2,4.9,0L78.3,71c1.3-1.1,2.9-1.7,4.5-1.7h20.6c7.7,0,13.9-6.2,13.9-13.9V13.9C117.2,6.3,111,0,103.3,0z"/>
<g id="XMLID_3_">
	<path id="XMLID_4_" class="st1" d="M58.6,63L39.3,48.4c-2.1-1.6-3.8-3.8-4.7-6.3C31.1,31.7,41.5,19.8,53.1,25
		c0.3,0.1,0.5,0.2,0.8,0.4l4.7,2.4l4.7-2.4c0.3-0.1,0.5-0.3,0.8-0.4c11.6-5.2,22,6.7,18.5,17.1c-0.9,2.5-2.6,4.7-4.7,6.3L58.6,63z"
		/>
</g>
</svg>
