<?xml version="1.0" encoding="utf-8"?>
<!-- Generator: Adobe Illustrator 23.1.0, SVG Export Plug-In . SVG Version: 6.00 Build 0)  -->
<svg version="1.1" id="Layer_1" xmlns="http://www.w3.org/2000/svg" xmlns:xlink="http://www.w3.org/1999/xlink" x="0px" y="0px"
	 viewBox="0 0 1011.2 649.3" style="enable-background:new 0 0 1011.2 649.3;" xml:space="preserve">
<style type="text/css">
	.st0{fill:url(#XMLID_2_);}
	.st1{fill:#318072;}
	.st2{fill:#0F4C75;}
</style>
<g id="XMLID_197_">
	<g id="XMLID_221_">
		
			<linearGradient id="XMLID_2_" gradientUnits="userSpaceOnUse" x1="233.91" y1="497.3667" x2="199.3464" y2="346.4389" gradientTransform="matrix(1 0 0 -1 0 651.98)">
			<stop  offset="0" style="stop-color:#318072"/>
			<stop  offset="1" style="stop-color:#0F4C75"/>
		</linearGradient>
		<path id="XMLID_222_" class="st0" d="M388.3,11.9c-0.7-1.9-2.2-3.4-3.7-4.5c-1.5-1.5-3.3-2.2-5.2-3c-1.9-0.7-3.7-1.1-5.6-1.1
			h-30.5c-3,0-5.2,0.4-6.7,1.1c-1.9,0.7-3.4,1.9-4.1,3c-1.1,1.5-2.2,3-3,4.8c-0.7,1.9-1.3,4-2.2,6.3c-4.1,10.4-14.1,8.5-19,3.7
			c-4.8-4.5-10-8.2-15.6-11.5c-5.9-3.4-12.3-5.9-19.3-7.8s-14.5-3-23-3c-18.6,0-35.3,3.3-51.3,10.4c-15.6,6.7-29,16.4-40.5,28.2
			c-11.5,12.3-20.4,26.4-26.8,42.7c-6.3,16-9.7,33.4-9.7,52.4c0,18.6,3.3,36,9.7,51.6s15.2,29,26.8,40.1
			c11.5,11.5,24.9,20.1,40.5,26.4c16,6.3,32.7,9.3,51.3,9.3c8.2,0,15.6-0.7,21.9-3c6.3-1.9,11.9-4.5,16.7-7.4
			c5.2-3.3,9.7-7.1,13.8-11.2c4.1-4.1,10.9-16,12.3-6.7v3c0,3.3-0.4,6.7-0.4,10c-0.4,3.3-1.1,6.3-1.9,8.9c-1.9,6.3-4.8,11.5-9.3,16
			c-4.5,4.8-9.3,8.5-15.2,11.9c-5.9,3.3-11.9,5.6-18.6,7.1c-0.7,0.2-1.5,0.4-2.5,0.6c-22.6,5.5-44.9-1.7-65.8-11.7
			c-11.2-5.3-15.9-6.6-32.6-12c-7.5-2.4-25.4-4.6-38.9-4.6c-18,0-31.7,0.2-46.2,4.5c-14.6,4.4-27,10.6-37.3,18.6
			c-10.3,8-18.3,17.7-23.9,29c-5.6,11.3-8.4,23.8-8.4,37.7c0,13.1,2.2,24.9,6.7,35.5c4.4,10.6,11.1,20.3,20.1,29.2
			c8.9,8.8,20.1,16.8,33.4,24.1c13.4,7.2,29,13.9,46.8,20.2c4,1.3,8.8,3,14.3,5c5.5,2,10.8,4.4,15.8,7.2c5.1,2.8,9.3,6,12.8,9.7
			c3.5,3.6,5.2,7.8,5.2,12.4c0,4.2-0.6,8.1-1.9,11.8c-1.3,3.7-3.4,7-6.4,9.8c-3,2.8-7,5.1-12.2,6.8c-5.1,1.7-11.5,2.6-19.1,2.6
			c-8.2,0-16-1.4-23.4-4.3c-7.4-2.8-14.9-6.8-22.5-11.8c-5-3.4-9.5-6.9-13.5-10.4c-3.9-3.5-7.2-6.3-9.7-8.4c-2.1-1.8-3.9-3.1-5.4-4
			c-1.5-0.9-2.9-1.3-4.2-1.3c-1.9,0-4.5,1.1-7.6,3.3L5.1,526.2c-3.4,3.1-5.1,6-5.1,8.5c0,2.2,1.7,5.2,5.1,8.9
			c0.2,0.2,0.3,0.3,0.4,0.3c0.2,0.1,0.3,0.3,0.4,0.6c0.2,0.2,0.3,0.3,0.4,0.3s0.3,0.3,0.4,0.6l0.7,0.7c2.4,2.5,5.6,5.9,9.7,10
			c4.1,4.2,9.1,8.4,15,12.8c14.3,10.3,29.7,18.5,46.2,24.6c16.5,6.1,33.3,9.2,50.4,9.2c18.1,0,35.1-2.6,50.8-7.7
			c15.8-5.1,29.5-12.4,41.1-21.8c11.7-9.4,20.9-20.7,27.5-34c6.7-13.3,10-28.1,10-44.5c0-15.5-2.7-28.6-8.1-39.5
			c-5.4-10.8-13-20.2-22.6-28c-9.7-7.8-21.1-14.6-34.5-20.3c-13.3-5.7-27.8-11.2-43.6-16.4c-8.2-2.7-15.4-5.2-21.5-7.5
			s-11.3-4.8-15.5-7.4c-4.1-2.6-7.3-5.4-9.4-8.5c-2.1-3-3.1-6.6-3.1-10.8c0-4.2,2.9-11.4,4.9-14.3c1.9-2.9,4.5-5.2,7.8-7
			c3.3-1.8,7.1-4.1,11.4-4.9c4.3-0.8,8.9-1.2,13.8-1.2c4.8,0,9.4,0.7,14,2.1c4.6,1.4,9,3.3,13.1,5.3c33.9,16.8,69.4,24.3,89.7,24.3
			c13.5,0,36.8-3,53.1-8.9c16.4-6.3,30.8-14.9,42.7-26.4c12.3-11.5,21.5-25.3,28.6-42c7.1-16.7,10.4-35.7,10.4-56.8V18.6
			C389.8,16,389.5,14.1,388.3,11.9z M319.2,137.5c-0.4,8.5-2.2,16.4-5.6,23.8c-3.7,7.4-8.2,13.8-13.8,19.3
			c-5.9,5.2-12.6,9.7-20.4,12.6c-7.4,3-15.6,4.5-24.5,4.5c-8.9,0-16.7-1.5-24.1-4.8c-7.4-3.4-13.4-7.8-18.6-13.4
			c-5.2-5.9-9.3-12.6-12.3-20.4c-2.6-7.8-4.1-16.4-4.1-25.3c0-8.9,1.5-17.1,4.1-24.9c3-8.2,7.1-14.9,12.3-20.8s11.1-10.4,18.6-14.1
			c7.4-3.4,15.2-5.2,24.1-5.2c8.9,0,17.1,1.9,24.5,5.2c7.8,3.3,14.5,7.8,20.4,13.4c5.6,5.6,10,12.3,13.8,19.7
			c3.3,7.4,5.2,15.2,5.6,23.4V137.5z"/>
	</g>
	<g id="XMLID_210_">
		<path id="XMLID_219_" class="st1" d="M427,165.6c0-1.4,0.3-2.6,0.8-3.6c0.5-1,1.2-1.9,2-2.5c0.8-0.6,1.8-1.1,2.8-1.5
			s2.1-0.5,3.1-0.5h16.4c1.8,0,3.3,0.5,4.3,1.6c1.1,1.1,2,2.5,2.8,4.1s1.4,3.5,2,5.5c0.6,2,1.3,4,2.1,5.9c2.2-2.4,4.3-4.8,6.5-7.1
			c2.1-2.3,4.4-4.4,6.9-6.2s5.2-3.3,8.1-4.4s6.3-1.7,10.1-1.7c3.9,0,7.4,0.3,10.5,0.9c3.1,0.6,6,1.4,8.8,2.6
			c2.8,1.1,5.5,2.6,8.2,4.3c2.7,1.8,5.7,3.8,8.9,6.1c3.1,1.8,4.7,4,4.7,6.4c0,1.6-0.6,3.5-1.8,5.5l-9.9,16.9c-2,2.8-4.4,4.3-7.3,4.3
			c-1.5,0-3.1-0.4-4.9-1.2c-3.1-3-6.3-5.3-9.5-6.8s-6.9-2.2-11-2.2c-2.8,0-5.3,0.4-7.5,1.2c-2.1,0.8-4.1,1.9-5.8,3.4
			c-1.7,1.5-3.4,3.2-4.9,5.2c-1.5,2-3,4.3-4.6,6.8v78.8c0,2.8-0.7,4.8-2,6.3c-1.3,1.4-3.6,2.1-6.7,2.1h-24.5c-5.7,0-8.5-2.8-8.5-8.4
			L427,165.6L427,165.6z"/>
		<path id="XMLID_216_" class="st1" d="M544.8,226.8c0-6.7,0.8-13.1,2.6-19.3s4.1-11.9,7.2-17.1c3.1-5.3,6.8-10.1,11.1-14.4
			c4.3-4.3,9.1-8,14.4-11s11-5.4,17.2-7.1c6.1-1.7,12.5-2.5,19.2-2.5c9.9,0,19.2,1.8,27.8,5.5c8.7,3.7,16.2,8.7,22.7,15.1
			s11.5,14,15.2,22.6c3.7,8.7,5.6,18.1,5.6,28.2c0,6.7-0.8,13.1-2.6,19.2c-1.7,6.1-4.1,11.9-7.2,17.2c-3.1,5.3-6.8,10.1-11.1,14.4
			c-4.3,4.3-9.1,8-14.4,11.1c-5.3,3.1-11,5.5-17,7.1s-12.4,2.5-19,2.5c-6.7,0-13.1-0.8-19.2-2.5c-6.1-1.7-11.8-4-17.2-7.1
			s-10.1-6.8-14.4-11.1c-4.3-4.3-8-9.1-11.1-14.4c-3.1-5.3-5.5-11-7.2-17.2C545.7,239.9,544.8,233.5,544.8,226.8z M584.5,226.8
			c0,4.8,0.7,9.3,2.2,13.4c1.5,4.2,3.6,7.8,6.3,10.8c2.7,3,6,5.5,9.9,7.2c3.9,1.8,8.3,2.7,13.1,2.7c4.7,0,9-0.9,12.8-2.7
			c3.8-1.8,7-4.2,9.7-7.2c2.6-3,4.7-6.7,6.1-10.8c1.4-4.2,2.1-8.7,2.1-13.4c0-4.7-0.7-9.1-2.1-13.3c-1.4-4.2-3.5-7.9-6.1-11.1
			c-2.7-3.2-5.9-5.7-9.7-7.6s-8.1-2.8-12.8-2.8c-4.9,0-9.2,0.9-13.1,2.8c-3.9,1.9-7.2,4.4-9.9,7.6c-2.7,3.2-4.8,6.9-6.3,11.1
			C585.3,217.8,584.5,222.2,584.5,226.8z"/>
		<path id="XMLID_214_" class="st1" d="M837.8,294c-0.9,0.8-1.9,1.3-3,1.5c-1,0.2-2,0.3-3,0.3h-16.4c-1.3,0-2.4-0.2-3.4-0.7
			c-0.9-0.5-1.8-1.1-2.4-1.9c-0.7-0.8-1.2-1.7-1.6-2.7c-0.4-1-0.8-2.1-1.1-3.1l-2.3-10.6c-1.1,2.2-2.9,4.6-5.5,7.1
			c-2.5,2.5-5.7,4.8-9.4,6.9c-3.7,2.1-8,3.8-12.9,5.2c-4.9,1.4-10.2,2.1-15.9,2.1c-8.3,0-15.6-1.6-22-4.8
			c-6.4-3.2-11.8-7.5-16.2-13.1c-4.4-5.5-7.7-12-10-19.3c-2.3-7.4-3.4-15.2-3.4-23.6V166c0-2.8,0.6-4.9,1.8-6.3
			c1.2-1.4,3.1-2.1,5.7-2.1h25.2c3.1,0,5.3,0.5,6.4,1.6c1.2,1.1,1.7,3.1,1.7,6.2v71c0,3.1,0.6,6.1,1.8,8.9c1.2,2.8,2.8,5.3,4.8,7.4
			c2,2.1,4.4,3.8,7.1,5.1c2.7,1.2,5.6,1.8,8.7,1.8c2.6,0,5.4-0.4,8.5-1.3s5.9-2.2,8.5-4.1c2.6-1.8,4.8-4.2,6.5-7.1
			c1.7-2.9,2.6-6.4,2.6-10.5v-70.9c0-1.2,0.2-2.5,0.7-3.7c0.5-1.2,1.2-2.2,2.1-2.8c0.9-0.6,1.8-1,2.7-1.2c0.8-0.2,1.8-0.3,2.9-0.3
			h24.6c3.1,0,5.4,0.8,6.8,2.3c1.4,1.5,2.1,3.6,2.1,6.1v121.8c0,1.4-0.3,2.7-0.9,3.8s-1.5,2.1-2.6,2.7L837.8,294z"/>
		<path id="XMLID_211_" class="st1" d="M869.6,158.9c0.9-0.8,1.9-1.3,2.9-1.5c1-0.2,2-0.3,2.9-0.3h16.4c1.4,0,2.5,0.2,3.4,0.6
			c0.9,0.4,1.7,1,2.2,1.8c0.6,0.8,1.1,1.6,1.5,2.6c0.4,1,0.8,2,1.1,3.2l4.6,13.2c2-2.6,4.1-5.3,6.2-8c2.1-2.7,4.5-5.2,7.3-7.4
			c2.8-2.2,6.2-4,10.1-5.5c3.9-1.5,8.7-2.2,14.4-2.2c9.9,0,19.1,1.8,27.5,5.5c8.4,3.7,15.6,8.7,21.7,15.1c6.1,6.4,10.8,14,14.2,22.6
			c3.4,8.7,5.1,18.1,5.1,28.2c0,10-1.7,19.4-5.1,28.1c-3.4,8.7-8.2,16.3-14.2,22.7c-6.1,6.4-13.3,11.5-21.7,15.2
			c-8.4,3.7-17.6,5.5-27.5,5.5c-4.7,0-8.8-0.6-12.2-1.7c-3.4-1.1-6.4-2.6-9.1-4.4c-2.7-1.8-5-3.8-7-6c-2-2.2-4-4.3-6-6.5v50.7
			c0,2.2-0.7,4-2,5.5c-1.3,1.5-3.3,2.3-6.1,2.3h-24.9c-0.9,0-1.8-0.2-2.8-0.5c-1-0.4-2-0.9-2.8-1.5s-1.6-1.5-2.2-2.5
			c-0.6-1-0.9-2.1-0.9-3.3V165.1c0-1.5,0.3-2.6,0.8-3.6C868.1,160.6,868.8,159.7,869.6,158.9z M971.3,226.8c0-4.7-0.8-9-2.3-13.2
			c-1.5-4.2-3.7-7.8-6.4-10.9c-2.8-3.1-6.1-5.6-9.9-7.4c-3.8-1.8-8.1-2.7-12.7-2.7c-4.6,0-8.9,0.9-13,2.6c-4.1,1.7-7.7,4-10.8,7
			c-3.1,2.9-5.6,6.4-7.5,10.4c-1.9,4-3,8.2-3.2,12.7v1.6c0,4.8,0.9,9.3,2.7,13.5s4.3,7.8,7.4,10.9s6.8,5.5,11,7.3
			c4.2,1.8,8.7,2.7,13.4,2.7c4.7,0,8.9-0.9,12.7-2.7c3.8-1.8,7.2-4.3,9.9-7.3c2.8-3.1,4.9-6.7,6.4-10.9
			C970.5,236.1,971.3,231.6,971.3,226.8z"/>
	</g>
	<g id="XMLID_198_">
		<path id="XMLID_207_" class="st2" d="M289.3,469.9c0.9-0.8,1.9-1.3,2.9-1.5c1-0.2,2-0.3,2.9-0.3h16.4c1.4,0,2.5,0.2,3.4,0.7
			c0.9,0.4,1.7,1,2.2,1.8c0.6,0.8,1.1,1.6,1.5,2.6c0.4,1,0.8,2,1.1,3.2l4.6,13.2c2-2.6,4.1-5.3,6.1-8c2.1-2.7,4.5-5.2,7.3-7.4
			c2.8-2.2,6.2-4,10.1-5.5c3.9-1.5,8.7-2.2,14.4-2.2c9.9,0,19.1,1.8,27.5,5.5c8.4,3.7,15.6,8.7,21.7,15.1c6,6.4,10.8,14,14.2,22.7
			c3.4,8.7,5.1,18.1,5.1,28.2c0,10-1.7,19.4-5.1,28.1c-3.4,8.7-8.2,16.3-14.2,22.7c-6.1,6.4-13.3,11.5-21.7,15.2
			c-8.4,3.7-17.5,5.5-27.5,5.5c-4.7,0-8.8-0.6-12.2-1.7c-3.4-1.1-6.4-2.6-9.1-4.4c-2.7-1.8-5-3.8-7-6c-2-2.2-4-4.3-6-6.5v50.7
			c0,2.2-0.7,4-2,5.5c-1.3,1.5-3.3,2.3-6.1,2.3h-24.9c-0.9,0-1.8-0.2-2.8-0.5c-1-0.4-2-0.9-2.8-1.5s-1.6-1.5-2.2-2.5
			c-0.6-1-0.9-2.1-0.9-3.3V476.1c0-1.5,0.3-2.6,0.8-3.6C287.8,471.5,288.5,470.7,289.3,469.9z M391,537.8c0-4.7-0.8-9-2.3-13.2
			c-1.5-4.2-3.7-7.8-6.4-10.9c-2.8-3.1-6.1-5.6-9.9-7.4c-3.8-1.8-8.1-2.7-12.7-2.7c-4.6,0-8.9,0.9-13,2.6c-4.1,1.7-7.7,4-10.8,7
			c-3.1,2.9-5.6,6.4-7.5,10.4c-1.9,4-3,8.2-3.2,12.7v1.6c0,4.8,0.9,9.3,2.7,13.5s4.3,7.8,7.4,10.9s6.8,5.5,11,7.3
			c4.2,1.8,8.7,2.7,13.4,2.7c4.7,0,8.9-0.9,12.7-2.7c3.9-1.8,7.2-4.3,9.9-7.3c2.8-3.1,4.9-6.7,6.4-10.9
			C390.2,547.1,391,542.6,391,537.8z"/>
		<path id="XMLID_204_" class="st2" d="M595,598.8c0,1.2-0.2,2.4-0.7,3.5c-0.4,1.1-1.2,2-2.2,2.7c-0.8,0.8-1.8,1.3-2.8,1.5
			c-1.1,0.2-2,0.3-2.8,0.3h-21.5c-1.5,0-2.8-0.2-3.7-0.6c-1-0.4-1.7-1-2.3-1.7c-0.6-0.7-1.1-1.6-1.5-2.7c-0.4-1.1-0.8-2.2-1.3-3.4
			l-1.4-4.9c-2,2-4.2,3.9-6.7,5.8c-2.5,1.9-5.3,3.6-8.3,5.1c-3,1.5-6.2,2.7-9.7,3.6c-3.5,0.9-7,1.4-10.7,1.4c-6.6,0-12.9-0.8-19-2.5
			s-11.7-4-17-7.1c-5.3-3.1-10-6.8-14.3-11.1c-4.3-4.3-8-9.1-11-14.4c-3.1-5.3-5.5-11-7.1-17.2c-1.7-6.1-2.5-12.5-2.5-19.2
			c0-10.1,1.8-19.5,5.5-28.2c3.7-8.7,8.7-16.2,15.1-22.7s13.9-11.5,22.5-15.1c8.6-3.7,17.9-5.5,27.8-5.5c4.5,0,8.7,0.5,12.6,1.5
			c3.9,1,7.4,2.4,10.7,4.1c3.2,1.7,6.2,3.8,8.8,6.3c2.6,2.4,4.9,5.1,6.9,7.9l3.2-9.9c0.7-1.8,1.3-3.3,1.8-4.4c0.5-1.1,1-2,1.5-2.5
			c0.5-0.5,1.2-0.9,2-1.1c0.8-0.2,1.9-0.3,3.4-0.3h16.2c0.8,0,1.8,0.1,2.8,0.3c1.1,0.2,2,0.7,2.8,1.5c1,0.8,1.7,1.7,2.2,2.7
			c0.4,1,0.7,2.2,0.7,3.5L595,598.8L595,598.8z M487.8,537.8c0,4.8,0.7,9.3,2.2,13.4c1.5,4.2,3.6,7.8,6.4,10.8c2.8,3,6.1,5.5,10,7.2
			c3.9,1.8,8.2,2.7,12.9,2.7c4.9,0,9.4-0.9,13.5-2.7c4.2-1.8,7.8-4.2,10.9-7.2s5.5-6.7,7.2-10.8c1.8-4.2,2.6-8.7,2.6-13.4
			c0-4.7-0.9-9.1-2.6-13.3c-1.7-4.2-4.2-7.9-7.2-11.1c-3.1-3.2-6.7-5.7-10.9-7.6c-4.2-1.8-8.7-2.8-13.5-2.8c-4.7,0-9,0.9-12.9,2.8
			c-3.9,1.8-7.2,4.4-10,7.6c-2.8,3.2-4.9,6.9-6.4,11.1S487.8,533.2,487.8,537.8z"/>
		<path id="XMLID_202_" class="st2" d="M709.7,564.3c1-0.7,2-1.2,2.9-1.4c0.9-0.2,1.6-0.3,2.1-0.3c1.2,0,2.3,0.3,3.4,0.8
			s2.1,1.6,3.2,3.3l12.2,18.4c0.4,0.6,0.7,1.2,1,2c0.3,0.7,0.5,1.3,0.5,1.7c0,1.7-0.5,3-1.6,4.1c-1.1,1-2.2,2-3.4,2.8
			c-6,4.1-12.5,7.5-19.5,10c-7.1,2.5-14.6,3.8-22.5,3.8c-6.5,0-12.8-0.8-18.9-2.5s-11.7-4-16.9-7.1s-10-6.8-14.4-11.1
			c-4.3-4.3-8-9.1-11.1-14.4c-3-5.3-5.4-11-7.1-17.2c-1.7-6.1-2.6-12.5-2.6-19.2c0-6.7,0.8-13.1,2.6-19.3c1.7-6.2,4.1-11.9,7.1-17.2
			c3-5.3,6.8-10.1,11.1-14.4c4.4-4.3,9.2-8,14.4-11s10.9-5.4,16.9-7.1c6.1-1.7,12.4-2.5,18.9-2.5c7.9,0,15.2,1,21.9,3.2
			c6.7,2.1,13,5.2,18.9,9.4l-0.3-0.3c1.6,1,2.9,2,3.8,3.3c0.9,1.3,1.4,2.9,1.4,4.7c0,1.3-0.4,2.7-1.3,4l-9.7,16.4
			c-2,3.6-4.5,5.3-7.4,5.3c-0.7,0-1.5-0.2-2.4-0.5c-0.9-0.3-2-0.9-3.2-1.7c-3.2-2.1-6.6-3.8-10.3-5.2c-3.7-1.3-7.6-2-11.7-2
			c-4.6,0-8.8,0.9-12.6,2.8c-3.8,1.8-7.1,4.4-9.9,7.6c-2.7,3.2-4.8,6.9-6.4,11.1c-1.5,4.2-2.3,8.6-2.3,13.3c0,4.8,0.8,9.3,2.3,13.4
			c1.5,4.2,3.7,7.8,6.4,10.8c2.7,3,6,5.5,9.9,7.2c3.8,1.8,8.1,2.7,12.6,2.7c4.1,0,8-0.7,11.7-2.2
			C702.9,568.4,706.4,566.5,709.7,564.3z"/>
		<path id="XMLID_199_" class="st2" d="M871.4,590.3c-6.4,5.9-13.6,10.5-21.6,13.8c-8,3.3-16.4,5-25.4,5c-9.9,0-19.3-1.8-28.2-5.5
			s-16.6-8.7-23.3-15.1c-6.7-6.4-12-14-15.9-22.7c-3.9-8.7-5.9-18.2-5.9-28.4c0-6.4,0.8-12.6,2.3-18.6c1.6-6,3.8-11.6,6.7-16.8
			c2.9-5.2,6.3-10,10.5-14.4c4.1-4.4,8.7-8.2,13.8-11.3s10.6-5.5,16.5-7.3c6-1.8,12.2-2.6,18.8-2.6c6,0,11.9,0.8,17.5,2.4
			c5.7,1.6,11,3.8,16,6.8c5,2.9,9.5,6.4,13.7,10.5c4.1,4.1,7.7,8.5,10.7,13.3s5.3,10,6.9,15.5c1.6,5.5,2.5,11.1,2.5,16.9
			c0,3.8,0,6.9-0.2,9.3c-0.1,2.4-0.7,4.3-1.7,5.7c-1,1.4-2.7,2.4-5.1,2.9c-2.4,0.5-5.8,0.8-10.4,0.8h-78.4c0.7,4.7,2.2,8.5,4.4,11.7
			c2.2,3.1,4.8,5.6,7.7,7.5c2.9,1.8,6,3.2,9.3,4s6.4,1.2,9.3,1.2c2.6,0,5.3-0.3,8.1-0.8c2.8-0.5,5.4-1.3,8-2.2
			c2.6-0.9,4.9-2,7.1-3.2s3.9-2.5,5.2-3.8c1.2-0.9,2.2-1.7,3-2.1c0.8-0.5,1.7-0.7,2.7-0.7c0.9,0,1.9,0.3,2.9,1s2.1,1.6,3.3,2.8
			l11.5,13.1c0.8,0.9,1.3,1.8,1.5,2.6c0.2,0.8,0.3,1.5,0.3,2.3c0,1.5-0.4,2.7-1.2,3.8C873.5,588.6,872.5,589.5,871.4,590.3z
			 M819.1,499.6c-2.8,0-5.6,0.6-8.2,1.7c-2.7,1.1-5.1,2.6-7.5,4.5c-2.3,1.9-4.4,4-6.3,6.4c-1.8,2.4-3.4,4.8-4.5,7.3h55.6
			c-1.5-2.8-3.2-5.5-5-7.8c-1.8-2.4-3.8-4.5-6.1-6.3c-2.3-1.8-4.9-3.2-7.8-4.3C826.4,500.1,823,499.6,819.1,499.6z"/>
	</g>
</g>
</svg>
