<?xml version="1.0" encoding="utf-8"?>
<!-- Generator: Adobe Illustrator 24.0.0, SVG Export Plug-In . SVG Version: 6.00 Build 0)  -->
<svg version="1.1" id="Layer_1" xmlns="http://www.w3.org/2000/svg" xmlns:xlink="http://www.w3.org/1999/xlink" x="0px" y="0px"
	 viewBox="0 0 742.4 712.6" style="enable-background:new 0 0 742.4 712.6;" xml:space="preserve">
<style type="text/css">
	.st0{fill:#0F4C75;}
	.st1{fill:#FFFFFF;}
	.st2{fill:#E6E6E6;}
	.st3{fill:#318072;}
	.st4{fill:#FEB8B8;}
	.st5{fill:#2F2E41;}
	.st6{fill:#CCCCCC;}
	.st7{fill:url(#XMLID_10_);}
</style>
<g id="Group_29" transform="translate(-245 -109)">
	<path id="Path_339" class="st0" d="M678.8,277.9h-3.9v-107c0-34.2-27.7-61.9-61.9-61.9c0,0,0,0,0,0H386.3
		c-34.2,0-61.9,27.7-61.9,61.9c0,0,0,0,0,0v586.9c0,34.2,27.7,61.9,61.9,61.9H613c34.2,0,61.9-27.7,61.9-61.9V354h3.9L678.8,277.9z"
		/>
	<path id="Path_340" class="st1" d="M662.3,166.8v595.2c0,25.9-21,46.9-46.9,47H384c-25.9,0-47-21-47-47V166.8c0-25.9,21-47,47-47
		h28.1c-4.6,11.4,0.8,24.5,12.3,29.1c2.7,1.1,5.5,1.6,8.4,1.6h131.9c12.3,0,22.3-10,22.3-22.4c0-2.9-0.6-5.7-1.6-8.4h30.1
		C641.3,119.8,662.3,140.8,662.3,166.8L662.3,166.8z"/>
	<path id="Path_39" class="st2" d="M604.9,509.3H399.3c-2.1,0-3.8-1.7-3.8-3.8v-51c0-2.1,1.7-3.8,3.8-3.8h205.5
		c2.1,0,3.8,1.7,3.8,3.8v51C608.7,507.6,607,509.3,604.9,509.3L604.9,509.3z M399.3,452.2c-1.3,0-2.3,1-2.3,2.3v51
		c0,1.3,1,2.3,2.3,2.3h205.5c1.3,0,2.3-1,2.3-2.3v-51c0-1.3-1-2.3-2.3-2.3H399.3z"/>
	<circle id="Ellipse_5" class="st3" cx="426" cy="480" r="16"/>
	<path id="Path_40" class="st2" d="M462.9,469.4c-1.5,0-2.7,1.2-2.7,2.7s1.2,2.7,2.7,2.7h125.6c1.5,0.1,2.7-1.1,2.8-2.6
		c0.1-1.5-1.1-2.7-2.6-2.8c0,0-0.1,0-0.1,0L462.9,469.4L462.9,469.4z"/>
	<path id="Path_41" class="st2" d="M462.9,485.3c-1.5,0-2.7,1.2-2.7,2.7s1.2,2.7,2.7,2.7h125.6c1.5,0.1,2.7-1.1,2.8-2.6
		c0.1-1.5-1.1-2.7-2.6-2.8c0,0-0.1,0-0.1,0L462.9,485.3L462.9,485.3z"/>
	<path id="Path_42" class="st2" d="M604.9,594.6H399.3c-2.1,0-3.8-1.7-3.8-3.8v-51c0-2.1,1.7-3.8,3.8-3.8h205.5
		c2.1,0,3.8,1.7,3.8,3.8v51C608.7,592.9,607,594.6,604.9,594.6z M399.3,537.5c-1.3,0-2.3,1-2.3,2.3v51c0,1.3,1,2.3,2.3,2.3h205.5
		c1.3,0,2.3-1,2.3-2.3v-51c0-1.3-1-2.3-2.3-2.3H399.3z"/>
	<circle id="Ellipse_6" class="st3" cx="426" cy="565.3" r="16"/>
	<path id="Path_43" class="st2" d="M462.9,554.6c-1.5,0-2.7,1.2-2.7,2.7s1.2,2.7,2.7,2.7h125.6c1.5,0,2.7-1.2,2.6-2.7
		c0-1.4-1.1-2.6-2.6-2.6L462.9,554.6L462.9,554.6z"/>
	<path id="Path_44" class="st2" d="M462.9,570.6c-1.5,0-2.7,1.2-2.7,2.7s1.2,2.7,2.7,2.7h125.6c1.5,0,2.7-1.2,2.6-2.7
		c0-1.4-1.1-2.6-2.6-2.6L462.9,570.6L462.9,570.6z"/>
	<path id="Path_39-2" class="st2" d="M604.9,679.8H399.3c-2.1,0-3.8-1.7-3.8-3.8v-51c0-2.1,1.7-3.8,3.8-3.8h205.5
		c2.1,0,3.8,1.7,3.8,3.8v51C608.7,678.1,607,679.8,604.9,679.8L604.9,679.8z M399.3,622.8c-1.3,0-2.3,1-2.3,2.3v51
		c0,1.3,1,2.3,2.3,2.3h205.5c1.3,0,2.3-1,2.3-2.3v-51c0-1.3-1-2.3-2.3-2.3H399.3z"/>
	<circle id="Ellipse_5-2" class="st3" cx="426" cy="650.5" r="16"/>
	<path id="Path_40-2" class="st2" d="M462.9,639.9c-1.5,0-2.7,1.2-2.7,2.7s1.2,2.7,2.7,2.7h125.6c1.5,0.1,2.7-1.1,2.8-2.6
		c0.1-1.5-1.1-2.7-2.6-2.8c0,0-0.1,0-0.1,0L462.9,639.9L462.9,639.9z"/>
	<path id="Path_41-2" class="st2" d="M462.9,655.9c-1.5,0-2.7,1.2-2.7,2.7s1.2,2.7,2.7,2.7h125.6c1.5,0.1,2.7-1.1,2.8-2.6
		c0.1-1.5-1.1-2.7-2.6-2.8c0,0-0.1,0-0.1,0L462.9,655.9L462.9,655.9z"/>
	<g id="Group_28" transform="translate(733.282 333.482)">
		<path id="Path_409" class="st4" d="M37,474.7H24.5l-5.9-48H37L37,474.7z"/>
		<path id="Path_410" class="st5" d="M40.2,486.8H0v-0.5c0-8.6,7-15.6,15.6-15.6h24.5L40.2,486.8z"/>
		<path id="Path_411" class="st4" d="M191.7,466.6l-12.1,2.9L162.8,424l17.9-4.2L191.7,466.6z"/>
		<path id="Path_412" class="st5" d="M197.5,477.6l-39.1,9.2l-0.1-0.5c-2-8.4,3.2-16.8,11.6-18.8c0,0,0,0,0,0l0,0l23.9-5.6
			L197.5,477.6z"/>
		<path id="Path_413" class="st5" d="M34.4,272.1c0-2.5,0.8-61.6,17-83.9l0.2-0.3l56.4,7.8l-1.3,12.4c2.5,2.4,22,22.8,27.6,71.1
			l59.9,160.9l-27.8,2.5L84.1,267L40.4,457.9H12.8L34.4,272.1z"/>
		<path id="Path_414" class="st6" d="M44.8,190.4l5.5-29c-1.1-1.4-5.9-8.1-4.8-15.9c0.7-5.1,3.7-9.6,9.1-13.3l14.3-33.4l0.2-0.1
			c1-0.6,23.7-13.7,36.1-1.3c0.3,0.2,30.9,24.5,18.6,57.2l-15.1,45.5L44.8,190.4z"/>
		<path id="Path_415" class="st4" d="M25.6,229.6c5.6-0.6,9.7-5.7,9-11.3c-0.1-0.6-0.2-1.2-0.4-1.8l29.5-21.3l-17.7-6.7l-25.3,21.2
			c-5.3,2-8,7.9-6,13.3C16.4,227.4,20.9,230.1,25.6,229.6L25.6,229.6z"/>
		<path id="Path_416" class="st6" d="M31,195.2l45.1-35.5l-13.4-45.8c-1.3-4.4-0.7-9.1,1.7-13c2.2-3.7,5.8-6.3,10-7.2
			c7.7-1.6,14.7,2.7,20.8,12.8l0,0.1c1,2.5,24.5,60.5,6.6,72.9c-17.5,12.1-58.2,29.8-58.6,30l-0.5,0.2L31,195.2z"/>
		<circle id="Ellipse_66" class="st4" cx="90.9" cy="58.1" r="27.3"/>
		<circle id="Ellipse_67" class="st5" cx="133.7" cy="24.2" r="24.2"/>
		<path id="Path_417" class="st5" d="M154.6,44.2c-10.8,7.8-25.9,5.4-33.7-5.4c-1.6-2.2-2.8-4.6-3.6-7.2c1.7,13.2,13.7,22.6,27,21
			c13.2-1.7,22.6-13.7,21-27c-0.2-1.3-0.4-2.6-0.8-3.9C165.5,30.3,161.7,39,154.6,44.2z"/>
		<path id="Path_418" class="st5" d="M59.2,44.2c4.2-7.5,5.8-10.7,11.3-15.3c4.8-4.1,10.7-5.3,15.5-1.4c14.5-6.4,31.5,0.3,37.8,14.8
			c6.4,14.5-0.3,31.5-14.8,37.8c-14.5,6.4-31.5-0.3-37.8-14.8c-2-4.7-2.8-9.8-2.2-14.8C64.8,49.9,63.4,44.8,59.2,44.2z"/>
	</g>
	<path id="Path_419" class="st2" d="M985.5,821.6H246.9c-1.1,0-1.9-0.5-1.9-1s0.9-1,1.9-1h738.5c1.1,0,1.9,0.5,1.9,1
		S986.6,821.6,985.5,821.6z"/>
</g>
<g id="XMLID_197_">
	<g id="XMLID_221_">
		
			<linearGradient id="XMLID_10_" gradientUnits="userSpaceOnUse" x1="269.9022" y1="575.181" x2="258.5702" y2="525.6978" gradientTransform="matrix(1 0 0 -1 0 714)">
			<stop  offset="0" style="stop-color:#318072"/>
			<stop  offset="1" style="stop-color:#0F4C75"/>
		</linearGradient>
		<path id="XMLID_222_" class="st7" d="M320.5,92c-0.2-0.6-0.7-1.1-1.2-1.5c-0.5-0.5-1.1-0.7-1.7-1c-0.6-0.2-1.2-0.4-1.8-0.4h-10
			c-1,0-1.7,0.1-2.2,0.4c-0.6,0.2-1.1,0.6-1.3,1c-0.4,0.5-0.7,1-1,1.6c-0.2,0.6-0.4,1.3-0.7,2.1c-1.3,3.4-4.6,2.8-6.2,1.2
			c-1.6-1.5-3.3-2.7-5.1-3.8c-1.9-1.1-4-1.9-6.3-2.6c-2.3-0.6-4.8-1-7.6-1c-6.1,0-11.6,1.1-16.8,3.4c-5.1,2.2-9.5,5.4-13.3,9.3
			c-3.8,4-6.7,8.6-8.8,14c-2.1,5.2-3.2,11-3.2,17.2c0,6.1,1.1,11.8,3.2,16.9c2.1,5.1,5,9.5,8.8,13.2c3.8,3.8,8.2,6.6,13.3,8.6
			c5.2,2.1,10.7,3,16.8,3c2.7,0,5.1-0.2,7.2-1c2.1-0.6,3.9-1.5,5.5-2.4c1.7-1.1,3.2-2.3,4.5-3.7s3.6-5.3,4-2.2v1
			c0,1.1-0.1,2.2-0.1,3.3c-0.1,1.1-0.4,2.1-0.6,2.9c-0.6,2.1-1.6,3.8-3,5.2c-1.5,1.6-3,2.8-5,3.9c-1.9,1.1-3.9,1.8-6.1,2.3
			c-0.2,0.1-0.5,0.1-0.8,0.2c-7.4,1.8-14.7-0.6-21.6-3.8c-3.7-1.7-5.2-2.2-10.7-3.9c-2.5-0.8-8.3-1.5-12.8-1.5
			c-5.9,0-10.4,0.1-15.2,1.5c-4.8,1.4-8.9,3.5-12.2,6.1c-3.4,2.6-6,5.8-7.8,9.5c-1.8,3.7-2.7,7.8-2.7,12.3c0,4.3,0.7,8.2,2.2,11.6
			c1.5,3.5,3.7,6.7,6.6,9.6c2.9,2.9,6.6,5.5,11,7.9c4.4,2.4,9.5,4.6,15.3,6.6c1.3,0.4,2.9,1,4.7,1.6c1.8,0.7,3.5,1.4,5.2,2.4
			c1.7,0.9,3.1,2,4.2,3.2c1.1,1.2,1.7,2.5,1.7,4.1c0,1.4-0.2,2.7-0.6,3.9c-0.4,1.2-1.1,2.3-2.1,3.2c-1,0.9-2.3,1.7-4,2.2
			c-1.7,0.6-3.8,0.8-6.2,0.8c-2.7,0-5.2-0.5-7.7-1.4c-2.4-0.9-4.9-2.2-7.4-3.9c-1.7-1.1-3.1-2.3-4.4-3.4c-1.3-1.1-2.4-2.1-3.2-2.7
			c-0.7-0.6-1.3-1-1.8-1.3c-0.5-0.3-0.9-0.4-1.4-0.4c-0.6,0-1.5,0.4-2.5,1.1l-12.6,12.1c-1.1,1-1.7,2-1.7,2.8c0,0.7,0.6,1.7,1.7,2.9
			c0,0,0.1,0.1,0.1,0.1c0,0,0.1,0.1,0.1,0.2c0,0.1,0.1,0.1,0.1,0.1c0,0,0.1,0.1,0.1,0.2l0.2,0.2c0.8,0.8,1.8,1.9,3.2,3.3
			c1.3,1.4,3,2.8,4.9,4.2c4.7,3.4,9.7,6.1,15.1,8.1c5.4,2,10.9,3,16.5,3c5.9,0,11.5-0.8,16.7-2.5c5.2-1.7,9.7-4.1,13.5-7.1
			c3.8-3.1,6.8-6.8,9-11.1c2.2-4.4,3.3-9.2,3.3-14.6c0-5.1-0.9-9.4-2.7-12.9c-1.8-3.6-4.3-6.6-7.4-9.2c-3.2-2.6-6.9-4.8-11.3-6.6
			c-4.4-1.9-9.1-3.7-14.3-5.4c-2.7-0.9-5-1.7-7.1-2.4c-2-0.8-3.7-1.6-5.1-2.4c-1.4-0.8-2.4-1.8-3.1-2.8c-0.7-1-1-2.2-1-3.5
			c0-1.4,1-3.7,1.6-4.7c0.6-1,1.5-1.7,2.6-2.3c1.1-0.6,2.3-1.4,3.8-1.6c1.4-0.3,2.9-0.4,4.5-0.4c1.6,0,3.1,0.2,4.6,0.7
			c1.5,0.5,2.9,1.1,4.3,1.8c11.1,5.5,22.8,8,29.4,8c4.4,0,12.1-1,17.4-2.9c5.4-2.1,10.1-4.9,14-8.6c4-3.8,7.1-8.3,9.4-13.8
			c2.3-5.5,3.4-11.7,3.4-18.6V94.2C321,93.4,320.9,92.8,320.5,92z M297.9,133.2c-0.1,2.8-0.7,5.4-1.8,7.8c-1.2,2.4-2.7,4.5-4.5,6.3
			c-1.9,1.7-4.1,3.2-6.7,4.1c-2.4,1-5.1,1.5-8,1.5s-5.5-0.5-7.9-1.6c-2.4-1.1-4.4-2.6-6.1-4.4c-1.7-1.9-3-4.1-4-6.7
			c-0.9-2.6-1.3-5.4-1.3-8.3s0.5-5.6,1.3-8.2c1-2.7,2.3-4.9,4-6.8c1.7-2,3.7-3.4,6.1-4.6c2.4-1.1,5-1.7,7.9-1.7s5.6,0.6,8,1.7
			c2.6,1.1,4.8,2.6,6.7,4.4c1.8,1.8,3.3,4,4.5,6.5c1.1,2.4,1.7,5,1.8,7.7V133.2z"/>
	</g>
</g>
</svg>
